#!OML:ASF G:\JayActor3\Patient Classification 1\Patient 1\Session 6\male.ASF
:FULLY-SPECIFIED
:DEGREES
788
root -0.622806 16.3461 -22.8275 174.536 -43.2317 -174.608
lowerback -1.62836 -1.43408 4.21274
upperback 3.85297 -2.30846 1.98293
thorax 4.82271 -1.08499 -0.441816
lowerneck -6.54512 -5.7194 -3.46466
upperneck 21.0899 -9.42745 4.75943
head 7.97374 -4.67919 1.24977
rclavicle 4.89507e-014 1.03368e-014
rhumerus -23.0709 27.951 -75.8455
rradius 80.8653
rwrist -30.1225
rhand -41.1992 -10.2576
rfingers 7.12502
rthumb -14.1236 -39.7575
lclavicle 4.89507e-014 1.03368e-014
lhumerus -34.5711 11.0847 82.0446
lradius 31.5253
lwrist 18.3723
lhand -16.6885 11.0969
lfingers 7.12502
lthumb 9.53587 40.8611
rfemur -9.4577 10.3501 21.684
rtibia 35.1266
rfoot -21.2757 -6.69505
rtoes 0.472173
lfemur -1.35037 7.49862 -13.5296
ltibia 24.97
lfoot -19.5705 11.4086
ltoes -7.58822
789
root -0.644399 16.3446 -22.798 174.553 -42.8623 -174.588
lowerback -1.63812 -1.41413 4.14177
upperback 3.85798 -2.27613 1.93833
thorax 4.835 -1.06971 -0.447006
lowerneck -6.63566 -5.61556 -3.41059
upperneck 21.2739 -9.30784 4.72608
head 8.04165 -4.62201 1.23567
rclavicle -1.75427e-014 7.15625e-015
rhumerus -23.0904 28.9242 -75.7262
rradius 81.6634
rwrist -30.3729
rhand -40.9154 -10.434
rfingers 7.12502
rthumb -13.8501 -39.9529
lclavicle -1.75427e-014 7.15625e-015
lhumerus -34.4689 11.0106 82.0298
lradius 31.5486
lwrist 18.3551
lhand -16.7051 11.0592
lfingers 7.12502
lthumb 9.51989 40.8242
rfemur -9.60996 10.5399 21.5783
rtibia 35.1921
rfoot -21.1547 -6.57973
rtoes 0.394957
lfemur -1.34651 7.66134 -13.6328
ltibia 25.0155
lfoot -19.6952 11.5814
ltoes -7.46595
790
root -0.665017 16.343 -22.7685 174.559 -42.4786 -174.543
lowerback -1.65091 -1.38596 4.08548
upperback 3.86188 -2.23407 1.90018
thorax 4.84801 -1.04929 -0.453207
lowerneck -6.71006 -5.51318 -3.35572
upperneck 21.4394 -9.19123 4.70335
head 8.10136 -4.56575 1.22555
rclavicle -9.79511e-014 3.22031e-014
rhumerus -23.11 29.8818 -75.6081
rradius 82.498
rwrist -30.68
rhand -40.6689 -10.6596
rfingers 7.12502
rthumb -13.6126 -40.1945
lclavicle -9.79511e-014 3.22031e-014
lhumerus -34.3634 10.9184 82.02
lradius 31.571
lwrist 18.3589
lhand -16.7399 11.0331
lfingers 7.12502
lthumb 9.48627 40.7996
rfemur -9.77467 10.7371 21.4953
rtibia 35.2557
rfoot -21.0254 -6.46037
rtoes 0.319376
lfemur -1.36132 7.85624 -13.7057
ltibia 25.0778
lfoot -19.8195 11.7325
ltoes -7.37298
791
root -0.685091 16.3414 -22.7386 174.549 -42.0997 -174.471
lowerback -1.66336 -1.35569 4.05338
upperback 3.86692 -2.19067 1.86508
thorax 4.86146 -1.02749 -0.469637
lowerneck -6.77393 -5.41377 -3.29789
upperneck 21.5905 -9.07939 4.68743
head 8.15496 -4.51119 1.21736
rclavicle 2.74074e-014 5.76476e-015
rhumerus -23.1307 30.8123 -75.4903
rradius 83.3669
rwrist -31.0274
rhand -40.614 -10.9854
rfingers 7.12502
rthumb -13.5596 -40.5239
lclavicle 2.74074e-014 5.76476e-015
lhumerus -34.254 10.8403 81.994
lradius 31.5963
lwrist 18.3747
lhand -16.6629 11.0605
lfingers 7.12502
lthumb 9.56061 40.8236
rfemur -9.94246 10.9276 21.433
rtibia 35.3162
rfoot -20.8886 -6.33989
rtoes 0.253788
lfemur -1.3918 8.05957 -13.754
ltibia 25.156
lfoot -19.9411 11.8642
ltoes -7.28797
792
root -0.70518 16.3397 -22.7084 174.54 -41.736 -174.416
lowerback -1.67161 -1.32744 4.01784
upperback 3.87756 -2.14947 1.82224
thorax 4.8781 -1.00664 -0.492203
lowerneck -6.83295 -5.31515 -3.23307
upperneck 21.7329 -8.96928 4.67371
head 8.20479 -4.45683 1.20896
rclavicle 6.30147e-014 -1.88845e-014
rhumerus -23.1378 31.7156 -75.371
rradius 84.2548
rwrist -31.4123
rhand -40.6896 -11.398
rfingers 7.12502
rthumb -13.6325 -40.9315
lclavicle 6.30147e-014 -1.88845e-014
lhumerus -34.1342 10.7848 81.941
lradius 31.6302
lwrist 18.4831
lhand -16.4083 11.1768
lfingers 7.12502
lthumb 9.80627 40.9285
rfemur -10.1021 11.0948 21.3543
rtibia 35.3813
rfoot -20.7497 -6.20725
rtoes 0.194217
lfemur -1.41565 8.25683 -13.8162
ltibia 25.234
lfoot -20.0616 11.9856
ltoes -7.19196
